PathFileType	4	(X/Y/Z)	/Users/itak/Documents/Research/Walk-IL/dataset/trc/00361_00011.trc
DataRate	CameraRate	NumFrames	NumMarkers	Units	OrigDataRate	OrigDataStartFrame	OrigNumFrames
100.000000	100.000000	4	54	mm	100.000000	492	563
Frame#	Time	RPSI			LPSI			L3			STRN			T10			C7			CLAV			RBAK			LBAK			LSHO			LUPA			LAEL			LAOL			LWTS			LWPS			LFRA			LIFD			LHPS			LHTS			RSHO			RUPA			RAEL			RAOL			RWTS			RWPS			RFRA			RIFD			RHTS			RHPS			RBHD			LFHD			RFHD			LBHD			LHIP			RHIP			RASI			LASI			LKNE			LTHI			LANK			LTIP			LTOE			LMT1			LMT5			LHEE			RKNE			RTHI			RTIP			RTOE			RMT1			RMT5			RANK			RHEE			*53			
		X1	Y1	Z1	X2	Y2	Z2	X3	Y3	Z3	X4	Y4	Z4	X5	Y5	Z5	X6	Y6	Z6	X7	Y7	Z7	X8	Y8	Z8	X9	Y9	Z9	X10	Y10	Z10	X11	Y11	Z11	X12	Y12	Z12	X13	Y13	Z13	X14	Y14	Z14	X15	Y15	Z15	X16	Y16	Z16	X17	Y17	Z17	X18	Y18	Z18	X19	Y19	Z19	X20	Y20	Z20	X21	Y21	Z21	X22	Y22	Z22	X23	Y23	Z23	X24	Y24	Z24	X25	Y25	Z25	X26	Y26	Z26	X27	Y27	Z27	X28	Y28	Z28	X29	Y29	Z29	X30	Y30	Z30	X31	Y31	Z31	X32	Y32	Z32	X33	Y33	Z33	X34	Y34	Z34	X35	Y35	Z35	X36	Y36	Z36	X37	Y37	Z37	X38	Y38	Z38	X39	Y39	Z39	X40	Y40	Z40	X41	Y41	Z41	X42	Y42	Z42	X43	Y43	Z43	X44	Y44	Z44	X45	Y45	Z45	X46	Y46	Z46	X47	Y47	Z47	X48	Y48	Z48	X49	Y49	Z49	X50	Y50	Z50	X51	Y51	Z51	X52	Y52	Z52	X53	Y53	Z53	X54	Y54	Z54	

493	4.92	536.8328857421875	973.2390747070312	-391.4604187011719	409.2169799804688	974.2067260742188	-378.1676940917969	477.2483825683594	1023.924865722656	-385.8711547851562	449.9854431152344	1223.455322265625	-599.7214965820312	467.3258972167969	1141.845092773438	-366.7541809082031	451.78271484375	1392.707763671875	-390.697509765625	449.8822631835938	1347.512329101562	-551.0797119140625	519.3084106445312	1249.92529296875	-356.1242065429688	351.4098510742188	1355.643798828125	-376.5011291503906	290.8505859375	1379.135009765625	-457.5001220703125	223.2371063232422	1260.835327148438	-437.5851440429688	200.8636474609375	1058.428466796875	-454.5719299316406	262.1817626953125	1042.618408203125	-396.4573974609375	228.0069580078125	814.30322265625	-554.3564453125	173.6610870361328	806.2047119140625	-511.0158386230469	188.0711059570312	954.8489990234375	-469.6578674316406	220.5885162353516	652.5807495117188	-556.3826293945312	178.8429260253906	736.0724487304688	-506.5350036621094	208.9770812988281	737.2447509765625	-562.5105590820312	612.2260131835938	1382.058959960938	-454.1220703125	675.2802734375	1317.060668945312	-446.832763671875	718.4575805664062	1049.576293945312	-476.7564697265625	632.6415405273438	1037.18408203125	-441.6856384277344	652.5780029296875	883.7381591796875	-661.316650390625	714.0744018554688	847.8333129882812	-633.9896240234375	725.5173950195312	989.5698852539062	-518.9664916992188	630.3167724609375	720.84912109375	-724.7830200195312	647.4673461914062	792.8838500976562	-718.2150268554688	695.68603515625	772.4779663085938	-672.761474609375	535.6561889648438	1597.405517578125	-419.4112243652344	400.4910583496094	1633.961547851562	-573.7717895507812	502.1185607910156	1634.789916992188	-574.3228759765625	393.9796447753906	1587.931396484375	-392.8763122558594	297.8162536621094	918.195068359375	-454.199951171875	641.4099731445312	924.6566772460938	-472.4380798339844	584.4055786132812	948.3217163085938	-581.6327514648438	343.6085815429688	947.5745239257812	-579.764892578125	267.728515625	463.8557434082031	-525.1058349609375	270.0273742675781	603.787109375	-514.5481567382812	236.6291198730469	49.60654067993164	-444.4443054199219	239.6930236816406	253.7021026611328	-484.4631042480469	301.9220275878906	37.61374282836914	-646.7183837890625	338.8881225585938	26.94861030578613	-572.9193115234375	226.5053405761719	42.01104354858398	-569.7074584960938	300.6979675292969	42.51549911499023	-406.2606506347656	600.6384887695312	455.2328491210938	-497.7050170898438	620.4479370117188	716.2611083984375	-559.2699584960938	590.8648681640625	340.3951721191406	-503.2239685058594	509.4991760253906	40.98737335205078	-637.8933715820312	471.39697265625	39.31393432617188	-580.2032470703125	584.1434326171875	27.27137565612793	-545.6534423828125	571.3426513671875	39.58088302612305	-445.0012512207031	525.0494995117188	46.00698471069336	-394.7953796386719	nan	nan	nan	
494	4.93	535.51611328125	973.5283813476562	-393.0990600585938	407.9619445800781	975.0046997070312	-380.0235595703125	475.8204956054688	1024.463745117188	-387.5190734863281	449.5609741210938	1223.76416015625	-601.1890258789062	465.3321838378906	1141.995727539062	-368.3750915527344	450.3934631347656	1392.948608398438	-392.0773620605469	449.3131103515625	1347.826416015625	-552.4893188476562	517.40087890625	1250.103637695312	-357.1821899414062	349.71875	1356.049072265625	-378.5082092285156	289.8309326171875	1379.723876953125	-459.8506164550781	221.7184906005859	1261.693969726562	-440.2967224121094	199.0865173339844	1059.38134765625	-457.5374145507812	260.1922912597656	1043.307983398438	-399.3513793945312	225.7371063232422	816.1159057617188	-559.0198974609375	171.5059814453125	807.5643920898438	-515.5680541992188	186.0596771240234	955.817138671875	-473.1335754394531	218.1701507568359	654.4096069335938	-563.0841064453125	176.6468505859375	737.3831176757812	-511.9717407226562	206.4772033691406	739.2430419921875	-568.0980834960938	610.9927978515625	1382.2490234375	-454.480712890625	673.9119873046875	1317.24951171875	-446.6852722167969	716.0109252929688	1049.4921875	-475.1144714355469	629.63818359375	1037.6337890625	-441.2520751953125	652.7500610351562	881.6229858398438	-658.98876953125	713.7254638671875	845.95654296875	-630.3273315429688	723.539306640625	989.1651000976562	-516.7885131835938	631.9917602539062	718.0419921875	-721.1636962890625	648.8595581054688	790.2483520507812	-715.07861328125	696.2371215820312	770.2987670898438	-668.5388793945312	534.7786254882812	1597.5576171875	-420.7775573730469	399.9622192382812	1634.080078125	-575.4445190429688	501.5736389160156	1634.795776367188	-575.768310546875	393.0657043457031	1588.285888671875	-394.5067749023438	296.5053100585938	918.8785400390625	-455.937255859375	640.0595703125	924.6536865234375	-473.9277954101562	583.2677612304688	948.4302368164062	-583.0098876953125	342.4593200683594	947.878662109375	-581.6088256835938	266.6785278320312	463.9974670410156	-523.0945434570312	268.6684875488281	604.207763671875	-514.003173828125	236.2362518310547	49.36836242675781	-444.3243103027344	238.8633880615234	253.7264862060547	-483.196044921875	301.8102111816406	37.70864868164062	-646.612548828125	338.7134704589844	27.01279830932617	-572.897216796875	226.2943420410156	41.87484741210938	-569.6594848632812	300.4648132324219	42.44265747070312	-406.1802062988281	599.5762939453125	455.2908325195312	-499.3045959472656	619.309326171875	716.0902709960938	-560.5059814453125	589.8563232421875	340.3166198730469	-504.5410766601562	509.3192749023438	40.88729095458984	-638.0142211914062	471.2179870605469	39.12578201293945	-580.2621459960938	583.9733276367188	27.42986869812012	-545.6810913085938	571.1267700195312	39.86954116821289	-445.0670471191406	524.815185546875	46.21048355102539	-394.9971313476562	nan	nan	nan	
495	4.94	534.1644287109375	973.77294921875	-394.7068481445312	406.6472473144531	975.6556396484375	-381.8287048339844	474.372802734375	1024.90576171875	-389.1126708984375	449.1119995117188	1223.982177734375	-602.62060546875	463.3734130859375	1142.051635742188	-370.0112915039062	449.0584411621094	1393.098388671875	-393.4238586425781	448.7362365722656	1348.052124023438	-553.8740234375	515.5706787109375	1250.184814453125	-358.2561950683594	348.0858459472656	1356.364379882812	-380.435302734375	288.8388671875	1380.181640625	-462.1047973632812	220.2525787353516	1262.391845703125	-442.9358825683594	197.3584594726562	1060.207641601562	-460.565673828125	258.1627502441406	1043.82421875	-402.2164001464844	223.7362670898438	817.781982421875	-563.6875	169.4993591308594	808.8222045898438	-520.2978515625	184.1188659667969	956.6590576171875	-476.7368469238281	215.9559478759766	656.1134643554688	-569.681884765625	174.4911956787109	738.6360473632812	-517.5463256835938	204.249755859375	741.1011352539062	-573.6937255859375	609.7910766601562	1382.380493164062	-454.8903198242188	672.579345703125	1317.384643554688	-446.6062622070312	713.6182250976562	1049.36669921875	-473.5889892578125	626.716064453125	1038.019165039062	-440.9500427246094	652.9791259765625	879.5359497070312	-656.7466430664062	713.4498291015625	844.157958984375	-626.7601928710938	721.5888061523438	988.722412109375	-514.710693359375	633.8211059570312	715.30712890625	-717.713134765625	650.3832397460938	787.7210693359375	-712.0972290039062	696.9088745117188	768.2328491210938	-664.4744873046875	533.9009399414062	1597.677368164062	-422.1210632324219	399.38330078125	1634.119262695312	-577.0582275390625	500.9668884277344	1634.736206054688	-577.1644287109375	392.1427307128906	1588.560180664062	-396.0800170898438	295.1230773925781	919.3463745117188	-457.6401977539062	638.6654052734375	924.5848388671875	-475.4850158691406	582.0805053710938	948.4705200195312	-584.382080078125	341.2592163085938	948.0394287109375	-583.4035034179688	265.6000366210938	463.9750366210938	-521.057861328125	267.2108459472656	604.482666015625	-513.4197387695312	235.8057098388672	49.08996200561523	-444.1942749023438	238.0650787353516	253.6675109863281	-481.8604431152344	301.6955261230469	37.80334854125977	-646.4885864257812	338.54248046875	27.06941413879395	-572.869873046875	226.0710601806641	41.72357177734375	-569.60107421875	300.2323608398438	42.32898712158203	-406.0741577148438	598.60595703125	455.3272705078125	-500.8227233886719	618.126953125	715.8534545898438	-561.8093872070312	588.9012451171875	340.227783203125	-505.8027648925781	509.1427917480469	40.78960037231445	-638.1276245117188	471.0455932617188	38.9508171081543	-580.3169555664062	583.813720703125	27.59626960754395	-545.7213134765625	570.9281616210938	40.1445198059082	-445.1336059570312	524.5908203125	46.35361099243164	-395.1494140625	nan	nan	nan	
496	4.95	532.7689208984375	973.95849609375	-396.2719116210938	405.2570190429688	976.122802734375	-383.5831298828125	472.886962890625	1025.218139648438	-390.65771484375	448.6261596679688	1224.093383789062	-604.0197143554688	461.4728393554688	1142.01220703125	-371.6561889648438	447.7703552246094	1393.14599609375	-394.740478515625	448.139892578125	1348.170654296875	-555.2384643554688	513.8162231445312	1250.154174804688	-359.3528442382812	346.5193786621094	1356.569091796875	-382.2782897949219	287.8688049316406	1380.494750976562	-464.2537841796875	218.8514251708984	1262.9013671875	-445.4895935058594	195.6585540771484	1060.87255859375	-463.6480102539062	256.09326171875	1044.1357421875	-405.0582275390625	221.9823455810547	819.2755126953125	-568.3555908203125	167.6381530761719	809.944580078125	-525.1762084960938	182.2361145019531	957.3473510742188	-480.4466247558594	213.9274444580078	657.675048828125	-576.1868286132812	172.4131927490234	739.7901611328125	-523.2389526367188	202.2869567871094	742.79345703125	-579.2833862304688	608.6255493164062	1382.428344726562	-455.3691711425781	671.2897338867188	1317.435546875	-446.6172180175781	711.3028564453125	1049.16650390625	-472.1940612792969	623.9008178710938	1038.305786132812	-440.7640991210938	653.2775268554688	877.4462890625	-654.591796875	713.2420043945312	842.3814086914062	-623.2777709960938	719.6863403320312	988.1976318359375	-512.7296142578125	635.7706909179688	712.6366577148438	-714.4420166015625	652.0216674804688	785.2725830078125	-709.2703857421875	697.6676635742188	766.2202758789062	-660.5621948242188	533.0236206054688	1597.753295898438	-423.4410400390625	398.7535705566406	1634.082153320312	-578.6079711914062	500.3002319335938	1634.615844726562	-578.5096435546875	391.2101745605469	1588.734252929688	-397.5957946777344	293.6823425292969	919.5593872070312	-459.3480834960938	637.224609375	924.4910278320312	-477.0542907714844	580.8418579101562	948.437744140625	-585.7443237304688	340.003173828125	948.0447387695312	-585.1591796875	264.5123901367188	463.7896118164062	-519.0468139648438	265.704833984375	604.5931396484375	-512.8012084960938	235.3670349121094	48.78106307983398	-444.0606689453125	237.3162841796875	253.5281677246094	-480.4977416992188	301.5788269042969	37.90310668945312	-646.3493041992188	338.3833923339844	27.11833190917969	-572.8366088867188	225.8481140136719	41.56808471679688	-569.5347290039062	300.0059509277344	42.16864395141602	-405.9495239257812	597.7131958007812	455.3390808105469	-502.2356262207031	616.8977661132812	715.5916748046875	-563.1248168945312	587.9988403320312	340.1394348144531	-506.9956359863281	508.9747619628906	40.69562530517578	-638.2299194335938	470.8814392089844	38.7918815612793	-580.3693237304688	583.6669311523438	27.76398086547852	-545.77099609375	570.7482299804688	40.40665435791016	-445.2013549804688	524.3843994140625	46.44480514526367	-395.2513732910156	nan	nan	nan	
